<?xml version="1.0" standalone="no"?>
<!DOCTYPE svg PUBLIC "-//W3C//DTD SVG 20010904//EN"
 "http://www.w3.org/TR/2001/REC-SVG-20010904/DTD/svg10.dtd">
<svg version="1.0" xmlns="http://www.w3.org/2000/svg"
 width="573.000000pt" height="573.000000pt" viewBox="0 0 573.000000 573.000000"
 preserveAspectRatio="xMidYMid meet">
<metadata>
Created by potrace 1.14, written by Peter Selinger 2001-2017
</metadata>
<g transform="translate(0.000000,573.000000) scale(0.100000,-0.100000)"
fill="#000000" stroke="none">
<path d="M2857 5679 c41 -105 9 -209 -98 -320 -115 -119 -149 -186 -150 -299
-1 -103 28 -174 143 -344 56 -82 106 -168 113 -190 21 -71 -5 -168 -47 -179
-24 -7 -68 32 -68 60 0 64 -22 188 -39 221 -29 56 -93 116 -151 140 -58 24
-70 15 -42 -31 30 -50 55 -135 54 -191 0 -133 -101 -230 -171 -165 -36 33 -50
76 -66 193 -3 16 -6 30 -8 33 -6 5 -58 -74 -85 -130 -31 -63 -36 -88 -35 -168
2 -86 32 -150 125 -262 93 -112 111 -151 110 -237 0 -68 -8 -92 -42 -122 -38
-35 -59 -35 -97 0 -53 48 -56 60 -38 172 11 71 -11 123 -90 209 -105 113 -128
168 -106 248 6 20 8 39 6 41 -8 8 -35 -19 -67 -66 -44 -64 -42 -114 6 -217 47
-100 66 -178 54 -224 -14 -50 -70 -93 -138 -106 -31 -5 -38 -2 -59 24 -14 16
-26 36 -28 43 -1 7 -7 35 -13 62 -10 48 -17 64 -23 55 -2 -2 -17 -22 -34 -44
-35 -46 -62 -122 -64 -180 -3 -57 23 -135 79 -247 48 -96 52 -115 38 -192 -13
-69 -106 -107 -159 -65 -24 18 -73 99 -61 99 4 0 2 6 -4 13 -9 12 -8 50 3 95
3 12 3 22 -1 22 -30 0 -222 -190 -255 -252 -6 -12 -15 -25 -19 -28 -19 -13
-104 -221 -115 -280 -3 -14 -7 -36 -10 -49 -19 -99 -26 -295 -15 -486 3 -49 1
-80 -5 -80 -14 -1 -123 -15 -165 -22 -19 -3 -38 -7 -43 -10 -4 -2 -19 -6 -33
-9 -96 -17 -188 -140 -214 -286 -12 -67 -6 -252 10 -302 32 -101 52 -155 68
-186 31 -61 92 -148 130 -185 80 -78 216 -138 290 -127 44 6 75 -29 144 -165
62 -122 91 -174 119 -218 10 -16 22 -37 26 -45 10 -18 84 -130 98 -147 64 -77
150 -167 194 -203 29 -25 59 -50 66 -57 31 -29 179 -119 265 -160 52 -25 104
-50 114 -55 18 -9 185 -68 193 -68 2 0 -30 33 -70 73 -96 95 -121 129 -176
242 -29 61 -60 154 -67 203 -8 62 -3 219 8 237 3 6 8 27 12 47 4 21 23 76 42
124 19 48 33 88 32 89 -2 2 -34 8 -73 14 -114 18 -127 21 -200 42 -206 61
-368 188 -448 352 -44 91 -64 152 -71 218 -2 14 -5 30 -8 35 -12 18 0 200 16
260 44 167 154 328 291 426 45 32 110 70 117 68 2 -1 29 10 61 24 31 14 57 24
57 22 0 -2 23 2 50 9 31 8 93 12 163 11 95 -3 126 -8 204 -34 123 -42 241
-114 302 -185 9 -10 24 -28 35 -40 36 -42 78 -108 109 -172 l32 -65 20 37 c60
116 172 255 261 323 68 54 201 112 284 127 80 13 251 8 320 -11 66 -17 220
-84 220 -95 0 -4 15 -15 33 -26 99 -58 246 -269 272 -390 34 -162 38 -261 15
-355 -6 -25 -13 -55 -16 -68 -11 -55 -85 -187 -139 -251 -79 -93 -181 -167
-287 -210 -52 -21 -85 -31 -118 -37 -65 -12 -85 -14 -155 -20 -79 -7 -82 -9
-67 -26 6 -7 11 -17 11 -23 0 -5 7 -26 15 -45 27 -65 55 -165 62 -220 22 -175
-10 -305 -114 -465 -34 -52 -161 -205 -170 -205 -9 0 -35 -41 -29 -46 5 -5 82
19 137 43 118 51 381 197 400 222 3 3 31 25 63 49 78 58 211 193 269 272 27
36 55 72 63 81 8 9 15 21 15 27 0 6 7 17 15 25 21 22 85 147 134 264 24 56 48
106 54 111 12 10 38 18 142 43 144 35 275 146 351 295 21 42 39 80 40 83 0 3
3 13 6 21 30 78 44 271 26 371 -5 30 -10 61 -10 69 -2 35 -58 140 -97 177 -72
72 -186 100 -298 75 -23 -5 -46 -6 -52 -3 -7 5 -10 72 -9 206 1 110 -1 220 -5
245 -3 25 -9 65 -13 90 -16 113 -94 304 -172 417 -20 30 -48 76 -62 102 -14
27 -30 55 -36 62 -39 52 -95 243 -97 332 -1 31 -3 57 -5 57 -19 0 -66 -51 -88
-96 -27 -55 -35 -136 -21 -208 7 -30 -4 -57 -34 -90 -11 -11 -19 -22 -19 -25
0 -4 -9 -12 -21 -19 -63 -40 -128 -7 -134 68 -2 25 3 60 10 78 8 17 11 32 8
32 -3 0 -1 6 5 13 6 6 10 14 10 17 1 3 6 18 12 35 6 16 9 37 7 47 -3 10 -2 18
2 18 4 0 8 37 9 83 3 70 -1 95 -28 172 -17 50 -38 104 -45 121 -8 17 -18 41
-23 53 -8 21 -9 21 -55 -21 -51 -46 -66 -80 -61 -143 5 -84 5 -121 1 -140 -23
-95 -88 -143 -169 -122 -87 22 -119 108 -77 208 13 30 25 56 28 59 16 14 133
194 155 238 31 61 46 157 35 219 -11 57 -32 102 -89 188 -83 125 -102 213 -65
299 9 21 14 40 12 42 -5 5 -80 -69 -110 -108 -27 -35 -70 -148 -81 -212 -8
-41 -47 -106 -85 -140 -18 -17 -26 -18 -60 -8 -42 13 -46 22 -57 119 -8 72 7
110 81 203 62 79 120 179 131 230 25 119 -4 233 -93 365 -22 33 -57 95 -77
138 -21 42 -40 77 -42 77 -3 0 -14 -19 -24 -42 -24 -53 -26 -141 -5 -221 19
-74 19 -110 -2 -150 -23 -45 -42 -57 -88 -55 -35 2 -44 8 -67 43 -38 55 -36
101 8 211 43 105 51 213 22 275 -19 39 -95 129 -109 129 -5 0 -1 -19 8 -41z"/>
<path d="M3285 2234 c-42 -15 -95 -67 -95 -94 1 -55 127 -94 216 -66 10 3 33
8 49 11 17 2 39 7 50 9 30 6 163 -30 223 -60 51 -26 122 -95 122 -119 0 -16
43 -37 76 -37 37 0 62 31 56 71 -2 17 -8 31 -12 31 -4 0 -13 14 -20 30 -27 66
-140 150 -265 198 -96 37 -324 51 -400 26z"/>
<path d="M2225 1988 c-49 -10 -99 -23 -110 -28 -120 -54 -173 -82 -202 -105
-6 -5 -39 -30 -72 -55 -33 -25 -60 -49 -60 -54 -1 -5 -9 -15 -18 -22 -39 -29
11 -12 72 25 141 84 313 112 537 87 58 -7 148 9 148 25 0 5 6 9 14 9 7 0 19
14 26 30 11 26 10 33 -5 50 -24 27 -108 53 -179 55 -34 1 -101 -7 -151 -17z"/>
<path d="M3428 1774 c-2 -1 -15 -5 -28 -7 -48 -10 -82 -28 -116 -62 -49 -51
-67 -92 -69 -160 -3 -92 31 -156 110 -212 36 -25 49 -28 120 -28 70 0 85 3
120 26 52 35 80 65 99 112 49 119 -3 254 -119 307 -37 17 -110 32 -117 24z
m94 -46 c88 -61 34 -208 -76 -208 -62 0 -118 63 -114 127 6 90 112 136 190 81z"/>
<path d="M2217 1604 c-88 -28 -187 -102 -187 -140 0 -13 3 -24 8 -25 4 0 18
-2 31 -5 15 -3 38 5 61 20 20 13 57 31 81 39 53 18 170 17 193 -2 9 -8 16 -10
16 -6 0 5 8 1 18 -8 48 -44 144 -61 161 -29 18 35 -28 84 -127 134 -76 38
-178 47 -255 22z"/>
<path d="M2327 704 c-2 -3 0 -22 6 -42 14 -44 130 -161 227 -227 59 -41 145
-78 210 -92 32 -7 176 -7 213 1 129 24 301 117 409 219 48 45 -7 51 -72 6 -68
-46 -136 -79 -214 -104 -94 -30 -269 -29 -362 3 -101 34 -206 94 -279 160 -16
15 -37 33 -46 39 -22 18 -86 43 -92 37z"/>
</g>
</svg>
